<?xml version="1.0" standalone="no"?>
<!DOCTYPE svg PUBLIC "-//W3C//DTD SVG 20010904//EN"
 "http://www.w3.org/TR/2001/REC-SVG-20010904/DTD/svg10.dtd">
<svg version="1.0" xmlns="http://www.w3.org/2000/svg"
 width="249.000000pt" height="203.000000pt" viewBox="0 0 249.000000 203.000000"
 preserveAspectRatio="xMidYMid meet">

<g transform="translate(0.000000,203.000000) scale(0.100000,-0.100000)"
fill="#000000" stroke="none">
<path d="M1099 1825 c-1 -58 -2 -110 -3 -117 -1 -6 5 -13 12 -15 9 -4 12 17
12 81 0 47 4 86 8 86 4 0 48 -23 97 -51 50 -29 106 -61 125 -72 19 -10 54 -30
78 -44 l42 -25 0 -99 0 -99 -60 30 c-68 34 -70 35 -70 17 0 -11 156 -107 174
-107 13 0 5 31 -9 36 -12 5 -15 29 -15 129 0 102 -3 126 -17 143 -19 23 -342
212 -361 212 -8 0 -12 -33 -13 -105z"/>
<path d="M1190 1701 c0 -11 -7 -22 -37 -56 -7 -7 -13 -22 -13 -33 0 -11 -7
-25 -15 -32 -8 -7 -15 -19 -15 -26 0 -18 -60 -19 -61 -1 0 6 -5 1 -10 -13 -6
-14 -8 -43 -6 -65 3 -22 3 -32 0 -22 -2 9 -9 17 -15 17 -6 0 -8 -10 -4 -22 3
-13 6 -38 6 -56 0 -23 4 -31 13 -27 6 4 5 0 -5 -7 -23 -20 -41 -360 -18 -356
10 2 19 32 30 100 9 53 18 100 21 103 7 7 15 -52 25 -178 6 -73 10 -87 23 -85
13 3 17 20 19 98 1 52 4 96 6 97 2 2 77 -39 167 -92 90 -52 168 -94 174 -92
14 5 19 297 5 311 -7 7 -10 -22 -10 -92 0 -82 -3 -102 -14 -102 -8 0 -82 39
-165 86 l-151 86 0 94 c0 92 4 106 27 83 19 -19 62 -1 83 34 22 35 25 47 11
47 -5 0 -14 -13 -20 -28 -15 -36 -36 -36 -66 0 -15 17 -29 26 -39 22 -9 -3
-16 -1 -16 6 0 6 5 8 10 5 6 -3 10 -1 10 4 0 6 -4 11 -10 11 -17 0 -11 41 10
67 11 14 20 32 20 40 0 8 4 12 9 8 11 -6 36 63 27 72 -3 4 -6 1 -6 -6z m-34
-243 c-9 -5 -22 -7 -29 -4 -7 2 -4 5 6 5 10 1 15 5 12 11 -4 6 1 7 11 3 15 -6
15 -7 0 -15z m38 -24 c5 -14 4 -15 -9 -4 -17 14 -19 20 -6 20 5 0 12 -7 15
-16z m-107 -60 c-3 -3 -12 -4 -19 -1 -8 3 -5 6 6 6 11 1 17 -2 13 -5z m8 -44
c-3 -5 -13 -10 -21 -10 -8 0 -12 5 -9 10 3 6 13 10 21 10 8 0 12 -4 9 -10z"/>
<path d="M2020 1435 c-41 -25 -114 -66 -162 -92 -85 -47 -88 -49 -86 -83 1
-30 2 -31 5 -8 3 22 21 37 90 78 46 27 86 50 88 50 2 0 36 18 75 41 58 32 75
38 82 27 7 -10 8 -8 6 6 -2 11 -7 21 -13 22 -5 2 -44 -17 -85 -41z"/>
<path d="M2020 1389 c-36 -21 -69 -40 -75 -42 -5 -3 -7 -8 -3 -12 8 -9 138 52
137 63 -3 19 2 25 11 12 8 -13 10 -12 10 3 0 23 -5 22 -80 -24z"/>
<path d="M1380 1409 c0 -5 5 -7 10 -4 6 3 10 8 10 11 0 2 -4 4 -10 4 -5 0 -10
-5 -10 -11z"/>
<path d="M1422 1385 c0 -16 2 -22 5 -12 2 9 2 23 0 30 -3 6 -5 -1 -5 -18z"/>
<path d="M512 1328 c-15 -15 -16 -84 -1 -94 8 -4 9 0 4 15 -4 12 -2 21 4 21 6
0 11 -6 11 -12 1 -8 6 -6 14 5 7 9 21 17 30 17 23 0 20 37 -3 50 -26 13 -44
13 -59 -2z"/>
<path d="M716 1314 c-50 -49 29 -98 129 -80 47 9 67 46 40 76 -25 28 -39 25
-56 -12 -9 -22 -21 -33 -34 -33 -13 0 -25 11 -34 33 -16 36 -23 39 -45 16z"/>
<path d="M2218 1323 c6 -3 12 -12 12 -20 0 -9 -6 -13 -15 -9 -9 3 -15 0 -15
-8 0 -9 7 -12 20 -9 18 5 22 10 19 29 0 4 5 10 11 14 7 4 0 7 -16 7 -16 0 -23
-2 -16 -4z"/>
<path d="M2269 1313 c-1 -5 -1 -17 0 -28 2 -17 0 -18 -9 -5 -8 11 -9 8 -4 -15
9 -38 14 -44 16 -19 4 57 5 74 2 74 -2 0 -5 -3 -5 -7z"/>
<path d="M1858 1284 c-38 -20 -36 -28 2 -9 17 9 30 18 30 20 0 7 -1 6 -32 -11z"/>
<path d="M1985 1135 c-82 -47 -155 -85 -162 -85 -7 0 -13 8 -13 17 0 31 -22
144 -27 139 -3 -3 0 -35 6 -72 9 -51 9 -69 1 -74 -11 -7 -12 -72 -6 -363 2
-68 10 -78 115 -137 66 -38 80 -42 125 -38 35 3 70 16 111 41 l60 35 3 -39 c3
-31 7 -39 23 -39 10 0 19 3 20 8 0 4 2 26 4 50 3 39 27 82 45 82 4 0 10 -18
14 -40 4 -26 11 -40 21 -40 11 0 15 12 15 48 0 102 -13 323 -19 315 -11 -16
-62 -33 -96 -33 -28 0 -36 5 -40 23 -5 20 -12 22 -63 21 -31 0 -69 -4 -83 -8
-26 -7 -80 12 -93 33 -3 5 10 19 28 32 l34 23 -26 16 c-26 16 -29 15 -90 -18
-34 -19 -69 -31 -77 -28 -18 7 -20 23 -2 23 6 0 64 31 127 68 63 38 134 79
158 92 35 21 50 33 39 33 -1 0 -69 -38 -152 -85z"/>
<path d="M1838 1165 c-2 -3 -3 -18 0 -35 5 -33 32 -42 32 -11 0 37 -16 61 -32
46z"/>
<path d="M2083 1142 c-31 -16 -43 -32 -24 -32 5 0 16 -7 25 -15 16 -16 40 -9
75 24 13 12 13 15 -4 27 -23 17 -32 17 -72 -4z"/>
<path d="M620 1120 c0 -5 5 -10 11 -10 5 0 7 5 4 10 -3 6 -8 10 -11 10 -2 0
-4 -4 -4 -10z"/>
<path d="M310 1035 c-41 -24 -79 -48 -85 -52 -5 -4 -22 -14 -37 -22 l-28 -14
0 -168 0 -168 44 -31 c25 -16 47 -30 50 -30 3 0 51 -27 107 -60 55 -33 103
-60 106 -60 5 0 174 100 183 108 3 3 -1 7 -8 9 -7 3 -25 15 -39 27 -19 17 -24
28 -19 44 11 33 28 26 61 -22 29 -44 30 -44 57 -30 36 19 35 30 -2 49 -17 9
-30 23 -30 35 0 33 19 32 58 -4 20 -20 40 -36 45 -36 4 0 7 75 7 168 l0 167
-35 23 c-19 12 -39 22 -44 22 -5 0 -12 -10 -15 -22 -4 -15 -27 -34 -69 -55
-55 -28 -65 -29 -82 -17 -10 8 -29 14 -41 14 -28 0 -85 55 -78 75 3 8 -1 22
-10 30 -10 11 -14 25 -10 41 3 13 2 24 -2 23 -5 0 -43 -20 -84 -44z m0 -370
c-24 -25 -49 -45 -55 -45 -13 0 -45 56 -45 81 0 25 30 25 37 -1 7 -27 14 -25
48 10 26 27 31 29 44 15 14 -13 10 -20 -29 -60z"/>
<path d="M610 1000 c0 -5 5 -10 11 -10 5 0 7 5 4 10 -3 6 -8 10 -11 10 -2 0
-4 -4 -4 -10z"/>
<path d="M1217 863 c-10 -9 -8 -66 2 -82 11 -17 41 -7 41 14 0 8 9 15 20 15
25 0 44 32 28 48 -13 13 -80 16 -91 5z"/>
<path d="M1004 802 c-11 -9 -21 -29 -22 -45 -2 -27 -2 -27 28 -12 23 12 30 22
30 45 0 34 -7 37 -36 12z"/>
<path d="M930 781 c0 -5 7 -11 15 -15 8 -3 15 -1 15 3 0 5 -7 11 -15 15 -8 3
-15 1 -15 -3z"/>
<path d="M1530 746 c0 -2 7 -7 16 -10 8 -3 12 -2 9 4 -6 10 -25 14 -25 6z"/>
<path d="M1336 684 c-5 -14 -4 -15 9 -4 17 14 19 20 6 20 -5 0 -12 -7 -15 -16z"/>
<path d="M1300 524 c0 -39 -17 -62 -50 -69 -38 -8 -97 11 -110 35 -10 19 -12
19 -53 -3 -23 -13 -68 -38 -99 -57 l-58 -35 0 -85 0 -85 63 -35 c34 -18 89
-50 123 -71 l61 -37 36 21 c20 12 77 46 127 75 49 29 90 60 91 68 0 8 0 37 0
64 0 28 0 58 0 68 -1 10 -12 25 -26 32 -22 12 -24 18 -19 51 5 32 2 42 -19 63
-35 35 -67 35 -67 0z m-246 -260 c11 -4 16 -19 16 -45 0 -42 -2 -44 -31 -29
-13 8 -19 21 -19 45 0 35 5 40 34 29z m76 -101 c0 -26 -33 -9 -38 20 -3 16 -1
16 17 5 12 -7 21 -18 21 -25z"/>
<path d="M233 415 c0 -8 4 -12 9 -9 5 3 6 10 3 15 -9 13 -12 11 -12 -6z"/>
<path d="M170 379 c0 -5 5 -7 10 -4 6 3 10 8 10 11 0 2 -4 4 -10 4 -5 0 -10
-5 -10 -11z"/>
<path d="M200 329 c0 -5 5 -7 10 -4 6 3 10 8 10 11 0 2 -4 4 -10 4 -5 0 -10
-5 -10 -11z"/>
<path d="M552 313 c-19 -7 -4 -23 23 -23 29 0 41 16 19 24 -18 7 -23 7 -42 -1z"/>
<path d="M633 278 c-13 -6 -23 -15 -23 -20 0 -4 -7 -8 -15 -8 -11 0 -15 -12
-15 -45 0 -25 2 -45 5 -45 15 0 53 24 49 31 -3 5 2 6 10 3 13 -5 16 3 16 45 0
28 -1 51 -2 50 -2 0 -13 -5 -25 -11z"/>
<path d="M1882 230 c0 -14 2 -19 5 -12 2 6 2 18 0 25 -3 6 -5 1 -5 -13z"/>
</g>
</svg>
